<svg width="126" height="27" viewBox="0 0 126 27" fill="none" xmlns="http://www.w3.org/2000/svg">
<path d="M108.721 6.12334L104.705 15.8992H112.951L108.721 6.12334ZM97.9577 25.9973H99.9732L110.656 0H111.624L122.917 25.9973H126V26.4986H113.955V25.9973H117.289L113.13 16.4005H104.526L100.547 25.9973H103.737V26.4986H96.9618L97.9577 25.9973Z" fill="#060606"/>
<path d="M82.4544 12.569H83.9242C84.9997 12.569 85.8481 12.4257 86.4695 12.1393C87.0909 11.8528 87.5569 11.4708 87.8676 10.9934C88.1783 10.4921 88.3695 9.93105 88.4412 9.31036C88.5368 8.68967 88.5846 8.05705 88.5846 7.41248C88.5846 6.36209 88.5129 5.46686 88.3695 4.72681C88.2261 3.96288 87.9871 3.3422 87.6525 2.86474C87.3179 2.36342 86.8519 1.99339 86.2544 1.75466C85.6808 1.51594 84.9399 1.39658 84.0317 1.39658C83.7688 1.39658 83.5059 1.40851 83.243 1.43238C82.9801 1.45626 82.7173 1.48013 82.4544 1.504V12.569ZM77.2562 1.504H73.958V1.00268H79.3713C80.3751 1.00268 81.3669 0.99074 82.3468 0.966866C83.3267 0.919122 84.3185 0.895249 85.3223 0.895249C86.2544 0.895249 87.2343 0.99074 88.262 1.18172C89.3136 1.3727 90.2696 1.70692 91.1299 2.18437C91.9903 2.63795 92.6954 3.25864 93.2451 4.04644C93.8187 4.83424 94.1055 5.82495 94.1055 7.01858C94.1055 7.97349 93.8904 8.7971 93.4602 9.48941C93.03 10.1578 92.4683 10.7069 91.7752 11.1366C91.106 11.5663 90.3532 11.9005 89.5167 12.1393C88.6802 12.3541 87.8557 12.4974 87.0431 12.569V12.748C88.2142 12.9629 89.2538 13.1777 90.162 13.3926C91.0941 13.6074 91.8947 13.9297 92.5639 14.3594C93.2331 14.7891 93.7589 15.386 94.1413 16.1499C94.5476 16.9138 94.7986 17.9403 94.8942 19.2294C95.0137 20.7334 95.1092 21.939 95.1809 22.8462C95.2526 23.7533 95.3482 24.4576 95.4677 24.9589C95.6111 25.4602 95.7811 25.5822 95.9962 25.7493C96.2352 25.9164 96.5698 26 97 26C97.478 26 97.972 26.0013 97.972 26.0013L100.5 26C100.5 26 100.5 26.5 99 26.5C98.5 26.5 95.8963 27 95 27C93.6855 27 92.8388 26.7971 92.0979 26.3912C91.357 25.9615 90.8073 25.4363 90.4488 24.8156C90.0903 24.195 89.8633 23.5265 89.7677 22.8103C89.696 22.0703 89.6482 21.378 89.6243 20.7334C89.5765 19.7546 89.5048 18.8117 89.4092 17.9045C89.3375 16.9735 89.1463 16.1499 88.8356 15.4337C88.5249 14.7175 88.0588 14.1446 87.4374 13.7149C86.816 13.2852 85.9437 13.0703 84.8204 13.0703H82.4544V25.9973H85.7525V26.4987H73.958V25.9973H77.2562V1.504Z" fill="#060606"/>
<path d="M54.767 13.8222C54.767 16.305 54.9085 18.37 55.1916 20.0172C55.4746 21.6405 55.911 22.9416 56.5007 23.9204C57.1139 24.8753 57.8923 25.5437 58.8358 25.9257C59.8028 26.3076 60.9468 26.4986 62.2677 26.4986C64.0131 26.4986 65.3812 26.1763 66.3718 25.5318C67.3625 24.8634 68.1055 23.9562 68.6008 22.8103C69.0961 21.6405 69.4028 20.2679 69.5207 18.6923C69.6622 17.0928 69.733 15.362 69.733 13.5C69.733 11.8289 69.674 10.2413 69.5561 8.73737C69.4617 7.20952 69.1669 5.87265 68.6716 4.72677C68.1762 3.55701 67.4215 2.63791 66.4072 1.96947C65.4166 1.27717 64.0367 0.931014 62.2677 0.931014C60.6166 0.931014 59.2957 1.25329 58.3051 1.89786C57.3144 2.51855 56.5596 3.40183 56.0407 4.54772C55.5218 5.69361 55.1798 7.05435 55.0147 8.62995C54.8496 10.2055 54.767 11.9363 54.767 13.8222ZM49 13.8222C49 11.7931 49.401 9.95488 50.2029 8.30767C51.0285 6.66045 52.0781 5.25197 53.3518 4.0822C54.6255 2.91245 56.0525 2.01722 57.6328 1.39653C59.2132 0.751969 60.7581 0.429688 62.2677 0.429688C63.8952 0.429688 65.4991 0.740032 67.0794 1.36072C68.6834 1.98141 70.0986 2.8647 71.3251 4.01059C72.5752 5.15647 73.5777 6.55302 74.3324 8.20024C75.1108 9.82358 75.5 11.6618 75.5 13.7148C75.5 15.5053 75.1344 17.2122 74.4032 18.8355C73.6956 20.435 72.7285 21.8435 71.502 23.061C70.2991 24.2785 68.8956 25.2453 67.2917 25.9615C65.7114 26.6538 64.0367 27 62.2677 27C60.5222 27 58.8476 26.6657 57.2437 25.9973C55.6397 25.305 54.2245 24.374 52.998 23.2042C51.7951 22.0106 50.828 20.614 50.0968 19.0146C49.3656 17.4151 49 15.6843 49 13.8222Z" fill="#060606"/>
<path d="M26.0347 1.00269H37.8292V1.50401H34.531V25.9974H40.4462C41.2349 25.9974 42.0236 25.8661 42.8123 25.6035C43.6249 25.3409 44.3777 24.9111 45.0708 24.3143C45.7878 23.6936 46.4211 22.9058 46.9708 21.9509C47.5444 20.9722 47.9866 19.7905 48.2973 18.4059H48.7633V26.4987H26.0347V25.9974H29.3328V1.50401H26.0347V1.00269Z" fill="#060606"/>
<path d="M11.7587 6.12334L7.74351 15.8992H15.9889L11.7587 6.12334ZM0 25.9973H3.01136L13.6945 0H14.6625L25.9551 25.9973H29.0382V26.4986H16.9927V25.9973H20.3267L16.1682 16.4005H7.56426L3.58496 25.9973H6.77557V26.4986H0V25.9973Z" fill="#060606"/>
</svg>
